 <svg version="1.0" xmlns="http://www.w3.org/2000/svg"  width="300.000000pt" height="386.000000pt" viewBox="0 0 300.000000 386.000000"  preserveAspectRatio="xMidYMid meet">  <g transform="translate(0.000000,386.000000) scale(0.100000,-0.100000)" fill="#000000" stroke="none"> <path d="M1785 2661 c-22 -10 -50 -29 -62 -42 -33 -37 -79 -144 -107 -254 -14 -55 -30 -103 -36 -109 -13 -13 -110 54 -156 108 -20 23 -31 32 -25 21 5 -11 22 -33 37 -50 40 -45 56 -73 50 -84 -8 -13 -89 -25 -114 -17 -34 11 -80 66 -97 114 -19 58 -19 62 4 62 44 0 111 82 111 135 0 31 11 32 47 1 38 -32 74 -101 108 -204 29 -86 45 -106 25 -31 -63 246 -191 347 -351 278 -56 -25 -62 -40 -19 -56 27 -10 30 -15 30 -56 0 -61 32 -159 65 -203 15 -20 43 -42 61 -50 36 -15 46 -33 17 -30 -12 1 -17 -6 -16 -18 1 -14 -22 -29 -100 -66 -75 -35 -97 -50 -84 -55 13 -6 17 -19 17 -66 0 -33 4 -59 10 -59 6 0 10 14 10 30 0 27 3 30 31 30 16 0 28 4 25 9 -3 4 -17 6 -31 3 -22 -4 -25 -1 -25 22 0 21 5 26 24 26 13 0 27 -6 30 -12 5 -10 7 -10 12 0 13 29 24 8 24 -48 0 -33 4 -60 10 -60 6 0 10 28 10 65 l0 65 -67 1 c-60 0 -64 2 -38 11 17 5 65 26 107 45 58 27 75 39 71 52 -3 13 -2 12 7 -2 7 -10 16 -14 23 -10 13 9 120 32 125 28 2 -2 -6 -21 -17 -44 -38 -73 -22 -58 22 22 54 99 91 139 126 135 20 -2 26 -9 26 -28 0 -21 -6 -26 -42 -33 -54 -10 -59 -32 -6 -24 21 4 39 11 41 16 2 6 10 7 18 4 9 -3 41 1 72 10 105 29 202 48 212 42 6 -3 13 1 16 9 3 9 12 16 20 16 8 0 14 4 14 10 0 5 -6 7 -14 4 -8 -3 -17 0 -21 6 -5 8 -12 7 -23 -3 -10 -8 -57 -24 -107 -37 -112 -28 -145 -32 -145 -20 0 6 12 10 26 10 45 0 93 30 119 74 28 49 55 145 55 199 0 34 4 40 30 50 39 15 34 27 -20 55 -54 27 -111 28 -165 3z m175 -27 c0 -3 -9 -14 -19 -25 -20 -22 -25 -19 -35 23 -6 26 -5 27 24 17 16 -6 30 -13 30 -15z m-60 -10 c0 -14 -21 -19 -33 -7 -9 9 13 34 24 27 5 -3 9 -12 9 -20z m-110 -8 c0 -14 4 -36 9 -49 14 -36 70 -87 96 -87 l23 0 -18 -51 c-38 -104 -75 -135 -146 -125 -25 3 -50 8 -55 12 -11 6 5 39 36 74 12 14 31 39 41 55 11 19 2 12 -26 -19 -42 -46 -115 -106 -130 -106 -9 0 41 152 70 213 24 51 71 107 89 107 6 0 11 -11 11 -24z m60 -6 c0 -5 11 -12 24 -16 29 -7 41 -43 21 -63 -13 -13 -18 -11 -45 14 -29 27 -38 54 -23 68 10 10 23 8 23 -3z m-586 -47 c-10 -40 -16 -44 -43 -22 l-23 19 33 15 c19 8 35 14 37 15 1 0 -1 -12 -4 -27z m44 -6 c2 -12 -3 -17 -17 -17 -12 0 -21 6 -21 13 0 31 32 34 38 4z m48 -21 c8 -20 -12 -53 -43 -73 -24 -16 -26 -16 -39 2 -16 22 -8 40 32 65 36 23 43 24 50 6z m188 -312 c29 -11 17 -20 -29 -22 -25 -1 -54 -6 -64 -11 -18 -10 -31 -6 -31 10 0 19 91 36 124 23z"/> <path d="M1225 2210 c-9 -14 16 -22 51 -16 16 3 31 0 36 -7 5 -9 10 -9 18 -1 15 15 6 20 -52 28 -29 4 -49 3 -53 -4z"/> <path d="M1595 2173 c71 -110 82 -118 38 -28 -15 30 -33 55 -41 55 -11 0 -11 -6 3 -27z"/> <path d="M2061 2106 c-18 -21 -7 -44 24 -52 35 -9 65 18 49 44 -14 22 -57 27 -73 8z m56 -31 c-16 -16 -37 -20 -37 -7 0 8 42 30 49 25 2 -1 -4 -9 -12 -18z"/> <path d="M1543 2060 c-39 -16 -55 -70 -30 -103 17 -23 68 -31 90 -15 16 12 14 13 -22 10 -36 -4 -42 -1 -52 22 -18 38 2 76 39 76 15 0 33 -5 40 -12 9 -9 12 -8 12 4 0 9 -10 18 -22 22 -28 7 -27 7 -55 -4z"/> <path d="M1929 2051 c-23 -19 -24 -19 -5 -40 11 -12 25 -21 33 -21 20 0 29 -30 12 -41 -20 -12 -25 -11 -44 8 -16 16 -17 15 -13 -3 7 -39 88 -24 88 17 0 12 -12 25 -35 36 -19 9 -35 21 -35 25 0 16 32 21 51 9 15 -9 19 -8 19 3 0 13 -20 26 -40 26 -4 0 -18 -9 -31 -19z"/> <path d="M1352 2049 c9 -5 15 -15 13 -22 -2 -6 -6 -31 -9 -54 -9 -61 11 -54 21 8 l8 50 40 -53 40 -53 6 56 c3 31 9 61 13 68 4 6 1 11 -8 11 -11 0 -16 -13 -18 -47 l-3 -48 -34 48 c-26 35 -41 47 -60 47 -22 -1 -23 -2 -9 -11z"/> <path d="M1638 2054 c7 -4 12 -27 12 -65 0 -38 4 -58 10 -54 6 3 10 19 10 36 0 27 3 29 35 29 32 0 35 -2 35 -30 0 -33 24 -50 43 -31 8 8 6 11 -7 11 -17 0 -18 6 -12 55 3 32 2 55 -3 55 -5 0 -11 -10 -13 -22 -2 -19 -10 -24 -41 -26 -35 -3 -38 -1 -35 20 2 18 -2 23 -22 25 -14 1 -19 0 -12 -3z"/> <path d="M1798 2053 c7 -3 12 -25 12 -58 0 -52 0 -53 35 -59 41 -8 55 -2 54 22 0 11 -3 12 -6 5 -2 -7 -18 -13 -34 -13 -22 0 -29 5 -29 20 0 15 7 20 25 20 14 0 25 5 25 11 0 7 -10 9 -25 5 -22 -6 -25 -3 -25 19 0 20 5 25 25 25 14 0 25 -5 25 -11 0 -5 5 -7 10 -4 25 15 5 25 -47 24 -32 0 -52 -3 -45 -6z"/> <path d="M910 1910 c12 -7 12 -18 3 -62 -6 -29 -9 -55 -6 -58 9 -9 23 26 23 60 l1 35 22 -42 c23 -47 32 -52 41 -25 4 9 16 28 27 42 l21 25 -7 -28 c-9 -43 2 -67 31 -67 16 0 28 8 36 25 15 33 59 35 73 3 6 -12 16 -23 22 -26 9 -2 9 4 -2 24 -7 15 -17 44 -20 66 -4 24 -12 38 -22 38 -10 0 -13 -5 -8 -17 18 -45 18 -53 -4 -53 -19 0 -20 3 -11 21 7 11 9 23 7 26 -3 2 -18 -18 -34 -46 -15 -28 -32 -49 -38 -47 -5 2 -9 29 -7 60 1 32 -2 56 -8 56 -5 0 -23 -23 -38 -50 l-29 -51 -21 51 c-17 40 -26 50 -44 50 -18 0 -20 -2 -8 -10z"/> <path d="M1229 1911 c10 -7 12 -22 6 -67 -4 -40 -3 -56 4 -49 5 6 11 30 13 55 l3 44 40 -52 c44 -58 48 -56 57 31 6 56 -8 64 -17 10 -4 -21 -8 -42 -9 -46 -1 -5 -16 12 -34 37 -22 31 -40 46 -55 46 -16 0 -19 -3 -8 -9z"/> <path d="M1432 1909 c20 -52 20 -59 -2 -59 -17 0 -19 3 -10 19 12 24 13 39 1 26 -22 -25 -62 -105 -52 -105 6 0 17 11 23 25 15 33 59 35 73 3 6 -13 19 -24 30 -26 18 -4 19 -3 3 10 -9 7 -23 35 -31 62 -7 28 -20 52 -27 54 -8 3 -11 -1 -8 -9z"/> <path d="M1532 1900 c-54 -51 3 -129 78 -105 30 9 28 55 -2 54 -13 0 -17 -3 -10 -6 6 -2 12 -13 12 -24 0 -25 -41 -26 -63 -1 -22 24 -21 55 1 75 24 22 50 21 75 0 19 -17 19 -17 16 2 -6 30 -76 33 -107 5z"/> <path d="M1658 1911 c9 -5 13 -25 11 -62 -2 -31 1 -53 6 -51 10 2 11 6 14 36 0 8 13 17 29 19 l27 4 -27 2 c-23 1 -28 6 -28 26 0 20 5 25 24 25 13 0 27 -6 29 -12 3 -8 6 -6 6 5 1 14 -8 17 -51 17 -33 0 -48 -4 -40 -9z"/> <path d="M1780 1910 c12 -7 12 -18 3 -62 -6 -29 -9 -55 -6 -58 9 -9 23 26 24 60 l1 35 23 -48 23 -48 27 46 c15 26 24 49 22 52 -3 3 -13 -9 -22 -26 -8 -17 -18 -31 -21 -31 -2 0 -13 20 -24 45 -15 35 -25 45 -42 45 -18 0 -20 -2 -8 -10z"/> <path d="M1908 1913 c-2 -5 -4 -33 -4 -63 1 -46 4 -55 21 -58 17 -4 18 -2 6 12 -10 11 -12 32 -8 66 3 28 2 50 -3 50 -5 0 -10 -3 -12 -7z"/> <path d="M1958 1913 c8 -3 12 -26 12 -64 0 -38 4 -58 10 -54 6 3 10 17 10 30 0 18 6 25 28 28 l27 4 -27 2 c-23 1 -28 6 -28 26 0 20 5 25 25 25 14 0 25 -4 25 -10 0 -5 5 -10 10 -10 6 0 10 7 10 15 0 12 -13 15 -57 14 -32 0 -52 -3 -45 -6z"/> <path d="M2079 1911 c11 -7 12 -23 7 -67 -4 -38 -3 -55 3 -49 5 6 11 30 13 55 l3 44 40 -52 c21 -29 42 -49 46 -44 9 10 17 122 9 122 -11 0 -21 -57 -14 -75 12 -29 -11 -14 -45 30 -21 29 -41 45 -55 45 -16 0 -18 -2 -7 -9z"/> <path d="M2216 1905 c-3 -8 -1 -15 4 -15 6 0 10 5 10 10 0 6 10 10 21 10 20 0 21 -4 15 -54 -3 -30 -2 -57 3 -60 10 -6 21 40 21 86 0 24 3 28 19 23 11 -3 22 -1 26 5 4 6 -15 10 -53 10 -44 0 -61 -4 -66 -15z"/> <path d="M1745 1810 c-4 -6 -16 -8 -27 -4 -14 4 -18 2 -14 -5 9 -14 43 -14 51 0 4 6 5 13 2 15 -3 3 -8 0 -12 -6z"/> <path d="M2045 1810 c-4 -6 -16 -8 -27 -4 -14 4 -18 2 -14 -5 9 -14 43 -14 51 0 4 6 5 13 2 15 -3 3 -8 0 -12 -6z"/> <path d="M713 1778 c-2 -5 -2 -8 1 -8 268 -3 1741 1 1744 5 3 3 -388 6 -867 7 -480 2 -875 0 -878 -4z"/> <path d="M880 1750 c0 -14 1396 -14 1405 0 4 7 -232 10 -699 10 -464 0 -706 -3 -706 -10z"/> </g> </svg> 