 <svg version="1.0" xmlns="http://www.w3.org/2000/svg"  width="300.000000pt" height="99.000000pt" viewBox="0 0 300.000000 99.000000"  preserveAspectRatio="xMidYMid meet">  <g transform="translate(0.000000,99.000000) scale(0.100000,-0.100000)" fill="#000000" stroke="none"> <path d="M1744 961 c-80 -37 -123 -106 -181 -301 -23 -76 -29 -106 -32 -147 -2 -35 -20 -4 -40 69 -25 91 -80 210 -114 246 -43 46 -96 66 -177 67 -58 0 -86 -5 -122 -23 -48 -22 -64 -52 -30 -52 38 0 51 -23 61 -105 14 -125 67 -229 132 -255 31 -13 31 -14 9 -22 -21 -8 -45 -6 -122 8 -21 4 -28 2 -28 -10 0 -12 11 -16 49 -16 30 0 51 -5 54 -12 3 -10 9 -10 26 0 18 11 21 10 21 -6 0 -28 -29 -49 -120 -88 -96 -40 -156 -93 -140 -123 5 -10 23 -24 40 -31 38 -16 36 -44 -3 -48 -19 -2 -27 1 -27 12 0 9 -4 16 -10 16 -18 0 -10 -38 9 -43 27 -7 68 3 82 19 17 20 4 42 -36 61 -22 10 -35 23 -33 32 4 22 39 26 54 6 8 -11 14 -13 19 -5 9 14 -13 40 -34 40 -9 1 20 16 64 34 44 18 108 47 142 64 35 18 72 34 84 35 11 2 24 9 29 16 5 9 10 10 14 3 4 -6 12 -9 19 -7 7 2 24 6 40 9 40 9 34 30 -7 22 -43 -8 -69 16 -37 34 23 12 65 5 80 -14 8 -9 5 -24 -9 -51 -24 -47 -24 -51 -6 -36 8 7 17 23 20 36 9 35 22 31 51 -15 14 -22 37 -58 51 -81 42 -66 38 -38 -5 42 -23 41 -41 77 -41 80 0 3 26 11 58 18 85 19 92 21 92 37 0 8 5 14 10 14 6 0 10 -4 10 -10 0 -14 40 -6 50 9 6 11 9 11 13 0 4 -11 6 -11 6 -1 1 7 4 11 9 8 4 -2 49 4 100 14 52 10 100 16 108 13 7 -3 17 2 20 11 3 9 12 16 20 16 8 0 14 5 14 11 0 6 -6 9 -14 6 -7 -3 -19 0 -25 6 -9 9 -14 9 -19 0 -4 -6 -39 -19 -77 -28 -39 -9 -79 -20 -90 -25 -22 -9 -55 -10 -55 -1 0 3 13 12 29 19 35 16 87 89 102 146 7 23 17 77 23 120 12 78 17 87 58 100 55 17 -58 76 -144 76 -30 0 -71 -9 -94 -19z m180 -17 l34 -17 -27 -23 c-28 -24 -33 -21 -45 29 -8 32 -7 32 38 11z m-46 -22 c2 -14 -2 -22 -12 -22 -19 0 -29 17 -22 36 8 22 30 12 34 -14z m-128 -14 c0 -65 86 -167 130 -155 11 3 20 4 20 4 0 -1 -9 -30 -20 -65 -25 -79 -60 -126 -110 -146 -35 -14 -42 -14 -82 1 -23 9 -44 18 -46 19 -6 4 17 41 53 84 20 24 43 57 51 74 13 28 12 27 -18 -9 -47 -59 -110 -117 -148 -139 -33 -19 -33 -19 -26 0 5 10 16 46 25 79 31 105 82 216 118 251 42 42 53 43 53 2z m113 -32 c27 -14 29 -54 4 -70 -15 -9 -23 -5 -48 22 -41 46 -39 113 3 75 10 -9 28 -21 41 -27z m-724 -39 c-5 -20 -12 -37 -14 -37 -2 0 -15 11 -28 24 l-24 24 36 15 c20 7 37 13 38 12 1 0 -2 -18 -8 -38z m57 -6 c-9 -14 -33 -14 -41 -1 -4 6 -1 18 6 26 11 13 14 13 27 0 8 -8 11 -19 8 -25z m147 0 c42 -37 79 -106 121 -223 19 -51 37 -102 41 -112 16 -38 -94 35 -160 106 -34 37 -66 68 -69 68 -8 0 -2 -8 63 -82 27 -31 55 -66 61 -78 10 -18 7 -22 -24 -35 -88 -37 -153 -6 -203 95 -46 94 -49 108 -21 103 53 -10 137 85 138 155 0 40 10 40 53 3z m-95 -24 c2 -19 -5 -36 -27 -57 -33 -34 -56 -38 -69 -12 -12 22 3 62 23 62 8 0 23 9 32 20 22 26 37 21 41 -13z m429 -283 c10 -26 -9 -46 -47 -49 -45 -4 -90 -22 -90 -35 0 -5 -7 -10 -15 -10 -25 0 -17 18 26 65 36 39 47 45 81 45 27 0 41 -5 45 -16z m-307 -81 c0 -5 -13 -15 -29 -25 -25 -14 -32 -14 -48 -3 -20 15 -13 20 37 28 14 2 28 5 33 6 4 0 7 -2 7 -6z"/> <path d="M2922 349 c-51 -19 -34 -69 24 -69 39 0 61 28 41 52 -17 21 -38 27 -65 17z m53 -34 c0 -13 -8 -21 -24 -23 -28 -4 -46 11 -37 33 9 25 61 16 61 -10z"/> <path d="M155 241 c-31 -5 -36 -8 -21 -14 16 -6 18 -16 14 -67 -3 -45 -1 -60 9 -60 8 0 13 12 13 30 0 28 3 30 36 30 21 0 33 4 29 10 -3 6 -20 10 -36 10 -26 0 -30 3 -27 23 4 29 58 39 58 10 1 -17 1 -17 14 0 27 35 38 20 34 -48 -2 -48 0 -65 10 -65 10 0 12 18 10 71 l-3 71 -50 3 c-27 1 -68 -1 -90 -4z"/> <path d="M335 239 c-17 -6 -17 -8 -2 -8 13 -1 17 -10 17 -40 0 -22 -4 -51 -10 -65 -7 -20 -6 -26 5 -26 10 0 15 16 17 57 l3 57 44 -57 c24 -31 49 -57 55 -57 6 0 11 15 11 33 0 17 4 52 8 75 6 34 5 43 -5 40 -8 -3 -15 -28 -18 -59 l-5 -54 -38 50 c-45 59 -55 65 -82 54z"/> <path d="M536 228 c-38 -34 -42 -69 -13 -104 21 -24 32 -29 67 -28 41 1 70 17 57 31 -4 4 -13 1 -19 -5 -18 -18 -63 -14 -81 6 -51 56 29 136 85 85 17 -15 18 -15 18 4 0 39 -75 46 -114 11z"/> <path d="M669 239 c-10 -6 -10 -9 -1 -9 8 0 12 -20 12 -65 0 -51 3 -65 15 -65 10 0 15 10 15 30 0 28 2 30 40 30 38 0 40 -2 40 -30 0 -26 3 -30 28 -29 18 1 21 3 9 6 -16 4 -18 13 -16 66 4 64 -13 98 -19 40 -3 -31 -6 -33 -43 -33 -36 0 -39 2 -39 29 0 31 -18 45 -41 30z"/> <path d="M876 243 c-27 -3 -35 -7 -26 -13 10 -6 13 -26 11 -69 l-2 -61 55 0 c51 0 56 2 56 23 -1 20 -2 20 -11 5 -11 -19 -79 -26 -79 -9 0 27 15 41 41 41 16 0 29 5 29 10 0 6 -13 10 -30 10 -25 0 -30 4 -30 25 0 20 5 25 25 25 13 0 29 -8 34 -17 9 -15 10 -14 11 10 0 29 2 28 -84 20z"/> <path d="M1297 208 c-14 -24 -29 -51 -34 -61 -8 -16 -13 -10 -34 37 -21 48 -28 56 -51 56 -16 0 -28 -5 -28 -10 0 -6 6 -9 13 -8 13 3 16 -37 4 -90 -5 -25 -4 -33 6 -30 6 3 14 26 17 53 l5 49 24 -52 c14 -29 27 -52 30 -52 3 0 19 23 34 50 16 28 29 50 31 50 2 0 1 -22 -2 -50 l-5 -50 37 0 c29 0 39 5 48 25 16 35 65 35 78 0 8 -21 16 -25 49 -25 l40 0 3 57 3 57 43 -57 c23 -31 46 -57 51 -57 8 0 33 141 26 148 -13 13 -25 -16 -25 -59 0 -27 -3 -49 -7 -49 -5 0 -24 23 -43 50 -39 56 -47 60 -75 49 -19 -7 -19 -8 -1 -8 16 -1 18 -6 12 -47 -3 -26 -6 -53 -6 -60 0 -8 -9 -14 -19 -14 -21 0 -51 62 -51 105 0 13 -5 27 -11 30 -12 8 -27 -10 -70 -82 -17 -29 -35 -53 -40 -53 -5 0 -9 32 -9 70 0 39 -4 70 -10 70 -5 0 -20 -19 -33 -42z m155 -17 c2 -17 -2 -25 -14 -27 -21 -3 -23 9 -7 38 12 23 16 21 21 -11z"/> <path d="M1747 199 c-54 -85 -60 -99 -44 -99 8 0 19 11 25 25 15 33 63 35 77 3 7 -15 20 -24 40 -26 l30 -3 -24 13 c-18 9 -29 28 -39 68 -7 30 -17 59 -22 64 -5 5 -23 -15 -43 -45z m43 -19 c0 -9 -9 -16 -20 -16 -24 0 -23 -2 -8 31 8 18 14 22 20 13 4 -7 8 -20 8 -28z"/> <path d="M1890 221 c-48 -47 -36 -103 24 -119 18 -6 45 -7 60 -5 21 4 26 11 26 34 0 24 -4 29 -25 29 -14 0 -25 -4 -25 -10 0 -5 7 -10 15 -10 8 0 15 -7 15 -15 0 -20 -54 -20 -74 1 -22 21 -20 67 2 87 24 22 68 22 81 0 5 -10 13 -14 17 -10 16 16 -13 42 -50 45 -29 3 -42 -2 -66 -27z"/> <path d="M2050 241 c-27 -5 -31 -8 -17 -14 16 -6 17 -15 11 -67 l-7 -60 57 0 c46 0 56 3 56 17 0 13 -3 14 -12 5 -7 -7 -27 -12 -46 -12 -27 0 -33 3 -28 16 3 9 6 20 6 25 0 5 14 9 30 9 17 0 30 5 30 10 0 6 -13 10 -30 10 -25 0 -30 4 -30 25 0 20 5 25 25 25 13 0 29 -8 34 -17 9 -15 10 -14 11 10 0 29 -13 32 -90 18z"/> <path d="M2305 210 c-14 -23 -29 -48 -32 -56 -9 -24 -18 -16 -40 36 -19 43 -25 50 -50 50 -23 -1 -25 -2 -11 -10 12 -8 15 -20 11 -52 -3 -24 -10 -51 -15 -60 -6 -13 -5 -18 6 -18 10 0 17 17 23 53 l9 52 19 -52 c10 -29 22 -53 26 -53 4 0 21 24 38 53 l31 52 0 -52 c0 -51 1 -53 28 -52 18 1 21 3 9 6 -16 4 -18 13 -15 68 1 35 0 67 -4 70 -4 4 -18 -12 -33 -35z"/> <path d="M2403 243 c-18 -2 -33 -8 -33 -14 0 -5 6 -8 13 -6 9 1 11 -15 10 -60 l-3 -63 55 0 c45 0 55 3 55 17 0 13 -3 14 -12 5 -7 -7 -26 -12 -44 -12 -28 0 -31 3 -26 25 3 20 10 25 33 25 16 0 29 5 29 10 0 6 -13 10 -30 10 -25 0 -30 4 -30 25 0 20 5 25 25 25 13 0 28 -7 33 -16 8 -15 10 -15 16 1 13 34 -3 39 -91 28z"/> <path d="M2646 234 c-3 -9 -6 -36 -6 -61 l0 -46 -41 56 c-32 46 -45 57 -67 56 -15 0 -21 -3 -14 -6 15 -6 16 -86 2 -114 -8 -15 -7 -19 3 -19 17 0 27 30 27 80 l0 35 18 -26 c23 -35 69 -89 76 -89 5 0 9 22 21 108 5 41 -7 58 -19 26z"/> <path d="M2685 241 c-3 -2 -5 -14 -5 -25 1 -19 2 -19 11 -3 5 9 19 17 30 17 19 0 20 -5 17 -65 -2 -46 1 -65 9 -65 8 0 13 22 15 62 3 59 4 62 28 63 14 0 25 4 25 9 0 9 -122 16 -130 7z"/> <path d="M10 67 c0 -9 360 -11 1452 -10 799 2 1452 6 1451 10 -5 14 -2903 13 -2903 0z"/> <path d="M270 40 c0 -7 400 -10 1181 -10 784 0 1178 3 1174 10 -9 14 -2355 14 -2355 0z"/> </g> </svg> 